<svg id="SVGRoot" version="1.1" viewBox="0 0 120 30" xmlns="http://www.w3.org/2000/svg" alt="LinkGX_Logo">
 <g transform="scale(1.0129 .98731)" stroke-width=".89808" aria-label="LinkGX.">
  <g fill="#b3b3b3">
   <path d="m0.055798 26.789v-20.117h6.7823v14.858h9.0814v5.2592z"/>
   <path d="m17.586 26.789v-15.72h6.4949v15.72zm3.2475-16.985q-1.7818 0-2.8451-0.94838-1.0633-0.94838-1.0633-2.3566 0-1.4082 1.0633-2.3566t2.8451-0.94838q1.7818 0 2.8451 0.8909t1.0633 2.2991q0 1.4944-1.0633 2.4715-1.0633 0.94838-2.8451 0.94838z"/>
   <path d="m37.876 10.781q1.8105 0 3.2762 0.74721 1.4657 0.71847 2.2991 2.2704 0.86216 1.5519 0.86216 4.0234v8.9665h-6.4949v-7.8457q0-1.4657-0.5173-2.0692-0.5173-0.63225-1.4082-0.63225-0.66099 0-1.2358 0.31613-0.54604 0.28739-0.8909 0.97712-0.31613 0.68973-0.31613 1.868v7.3858h-6.4949v-15.72h6.1788v4.5982l-1.2358-1.322q0.91964-1.7818 2.4715-2.6727 1.5806-0.8909 3.5061-0.8909z"/>
   <path d="m52.561 24.202 0.14369-7.6445 5.4316-5.4891h7.6732l-7.1847 7.5295-3.2475 2.6152zm-5.4316 2.5865v-21.324h6.4949v21.324zm11.352 0-4.3108-5.4604 3.9947-4.9143 8.1618 10.375z"/>
   <path d="m78.254 27.249q-2.4428 0-4.512-0.74721-2.0404-0.77594-3.5636-2.1841-1.4944-1.4082-2.3278-3.3337-0.83342-1.9255-0.83342-4.2533t0.83342-4.2533q0.83342-1.9255 2.3566-3.3337t3.5923-2.1554q2.0979-0.77594 4.5982-0.77594 2.9888 0 5.3167 1.0059 2.3566 1.0059 3.8797 2.8739l-4.3395 3.8222q-0.94838-1.0921-2.0692-1.6381-1.0921-0.57477-2.4428-0.57477-1.1208 0-2.0404 0.34486-0.8909 0.34486-1.5232 1.0059t-0.97712 1.5806q-0.34486 0.91964-0.34486 2.0979 0 1.1208 0.34486 2.0692 0.34486 0.91964 0.97712 1.5806t1.4944 1.0346q0.8909 0.34486 1.983 0.34486 1.1495 0 2.2416-0.3736 1.0921-0.40234 2.3278-1.3507l3.7935 4.6557q-1.8393 1.2358-4.1959 1.8968-2.3566 0.66099-4.5695 0.66099zm2.8739-3.4199v-7.6445h5.8914v8.5067z"/>
   <path d="m88.054 26.789 8.9665-12.53-0.02874 4.7419-8.6791-12.329h7.6158l5.058 7.4721-3.2475 0.02874 4.9431-7.5008h7.2996l-8.6791 12.07v-4.7131l9.1102 12.76h-7.7594l-5.058-7.8169 3.1325-0.02874-4.9431 7.8457z"/>
  </g>
  <path d="m114.55 27.076q-1.6094 0-2.7014-1.0346-1.0921-1.0633-1.0921-2.7014 0-1.6668 1.0921-2.6727 1.0921-1.0059 2.7014-1.0059 1.6094 0 2.7014 1.0059 1.0921 1.0059 1.0921 2.6727 0 1.6381-1.0921 2.7014-1.0921 1.0346-2.7014 1.0346z" fill="#f60" stroke-width=".89808"/>
 </g>
</svg>
